<mxfile host="app.diagrams.net" modified="2024-06-27T05:40:47.031Z" agent="Mozilla/5.0 (Windows NT 10.0; Win64; x64) AppleWebKit/537.36 (KHTML, like Gecko) Chrome/126.0.0.0 Safari/537.36" etag="RIWWMxpo3CCGNm5Uf-GY" version="24.6.3" type="github">
  <diagram name="Page-1" id="6mzOh0t52_RjSUSbZPau">
    <mxGraphModel dx="814" dy="425" grid="1" gridSize="10" guides="1" tooltips="1" connect="1" arrows="1" fold="1" page="1" pageScale="1" pageWidth="850" pageHeight="1100" math="1" shadow="0">
      <root>
        <mxCell id="0" />
        <mxCell id="1" parent="0" />
        <mxCell id="Rxk09TWc0jQ7itNL19s6-20" value="" style="ellipse;whiteSpace=wrap;html=1;fillColor=#ffe6cc;strokeColor=#d79b00;" vertex="1" parent="1">
          <mxGeometry x="410" y="520" width="90" height="220" as="geometry" />
        </mxCell>
        <mxCell id="Rxk09TWc0jQ7itNL19s6-21" value="" style="ellipse;whiteSpace=wrap;html=1;fillColor=#dae8fc;strokeColor=#6c8ebf;" vertex="1" parent="1">
          <mxGeometry x="250" y="520" width="90" height="220" as="geometry" />
        </mxCell>
        <mxCell id="Rxk09TWc0jQ7itNL19s6-22" value="Normal" style="text;html=1;align=center;verticalAlign=middle;resizable=0;points=[];autosize=1;strokeColor=none;fillColor=none;" vertex="1" parent="1">
          <mxGeometry x="190" y="615" width="60" height="30" as="geometry" />
        </mxCell>
        <mxCell id="Rxk09TWc0jQ7itNL19s6-23" value="Attacked" style="text;html=1;align=center;verticalAlign=middle;resizable=0;points=[];autosize=1;strokeColor=none;fillColor=none;" vertex="1" parent="1">
          <mxGeometry x="500" y="615" width="70" height="30" as="geometry" />
        </mxCell>
        <mxCell id="Rxk09TWc0jQ7itNL19s6-38" value="" style="endArrow=none;dashed=1;html=1;rounded=0;exitX=0;exitY=0.5;exitDx=0;exitDy=0;entryX=1;entryY=0.5;entryDx=0;entryDy=0;" edge="1" parent="1" source="Rxk09TWc0jQ7itNL19s6-21" target="Rxk09TWc0jQ7itNL19s6-20">
          <mxGeometry width="50" height="50" relative="1" as="geometry">
            <mxPoint x="375" y="612" as="sourcePoint" />
            <mxPoint x="425" y="562" as="targetPoint" />
          </mxGeometry>
        </mxCell>
        <mxCell id="Rxk09TWc0jQ7itNL19s6-53" value="" style="endArrow=none;html=1;rounded=0;exitX=1;exitY=1;exitDx=0;exitDy=0;entryX=0;entryY=1;entryDx=0;entryDy=0;labelPosition=center;verticalLabelPosition=top;align=center;verticalAlign=bottom;strokeWidth=2;fillColor=#f8cecc;strokeColor=#b85450;" edge="1" parent="1" source="Rxk09TWc0jQ7itNL19s6-34" target="Rxk09TWc0jQ7itNL19s6-36">
          <mxGeometry width="50" height="50" relative="1" as="geometry">
            <mxPoint x="440" y="600" as="sourcePoint" />
            <mxPoint x="490" y="550" as="targetPoint" />
          </mxGeometry>
        </mxCell>
        <mxCell id="Rxk09TWc0jQ7itNL19s6-56" value="\(d_1\)" style="edgeLabel;html=1;align=center;verticalAlign=middle;resizable=0;points=[];labelBackgroundColor=none;" vertex="1" connectable="0" parent="Rxk09TWc0jQ7itNL19s6-53">
          <mxGeometry x="-0.0564" relative="1" as="geometry">
            <mxPoint x="4" y="-10" as="offset" />
          </mxGeometry>
        </mxCell>
        <mxCell id="Rxk09TWc0jQ7itNL19s6-54" value="" style="endArrow=none;html=1;rounded=0;exitX=1;exitY=0;exitDx=0;exitDy=0;entryX=0;entryY=1;entryDx=0;entryDy=0;strokeWidth=2;fillColor=#f8cecc;strokeColor=#b85450;" edge="1" parent="1" source="Rxk09TWc0jQ7itNL19s6-24" target="Rxk09TWc0jQ7itNL19s6-36">
          <mxGeometry width="50" height="50" relative="1" as="geometry">
            <mxPoint x="315" y="577" as="sourcePoint" />
            <mxPoint x="445" y="577" as="targetPoint" />
          </mxGeometry>
        </mxCell>
        <mxCell id="Rxk09TWc0jQ7itNL19s6-57" value="\(d_2\)" style="edgeLabel;html=1;align=center;verticalAlign=middle;resizable=0;points=[];labelBackgroundColor=none;" vertex="1" connectable="0" parent="Rxk09TWc0jQ7itNL19s6-54">
          <mxGeometry x="-0.0606" relative="1" as="geometry">
            <mxPoint y="11" as="offset" />
          </mxGeometry>
        </mxCell>
        <mxCell id="Rxk09TWc0jQ7itNL19s6-55" value="" style="endArrow=none;html=1;rounded=0;exitX=1;exitY=1;exitDx=0;exitDy=0;entryX=1;entryY=0;entryDx=0;entryDy=0;strokeWidth=2;fillColor=#f8cecc;strokeColor=#b85450;" edge="1" parent="1" source="Rxk09TWc0jQ7itNL19s6-34" target="Rxk09TWc0jQ7itNL19s6-24">
          <mxGeometry width="50" height="50" relative="1" as="geometry">
            <mxPoint x="335" y="622" as="sourcePoint" />
            <mxPoint x="445" y="577" as="targetPoint" />
          </mxGeometry>
        </mxCell>
        <mxCell id="Rxk09TWc0jQ7itNL19s6-58" value="\(d_3\)" style="edgeLabel;html=1;align=center;verticalAlign=middle;resizable=0;points=[];labelBackgroundColor=none;" vertex="1" connectable="0" parent="Rxk09TWc0jQ7itNL19s6-55">
          <mxGeometry x="-0.1943" y="1" relative="1" as="geometry">
            <mxPoint x="-9" y="5" as="offset" />
          </mxGeometry>
        </mxCell>
        <mxCell id="Rxk09TWc0jQ7itNL19s6-59" value="" style="endArrow=none;html=1;rounded=0;exitX=0;exitY=1;exitDx=0;exitDy=0;labelPosition=center;verticalLabelPosition=top;align=center;verticalAlign=bottom;entryX=0;entryY=0;entryDx=0;entryDy=0;fillColor=#d5e8d4;strokeColor=#82b366;strokeWidth=2;" edge="1" parent="1" source="Rxk09TWc0jQ7itNL19s6-27" target="Rxk09TWc0jQ7itNL19s6-37">
          <mxGeometry width="50" height="50" relative="1" as="geometry">
            <mxPoint x="330" y="682" as="sourcePoint" />
            <mxPoint x="380" y="690" as="targetPoint" />
          </mxGeometry>
        </mxCell>
        <mxCell id="Rxk09TWc0jQ7itNL19s6-60" value="\(d_1\)" style="edgeLabel;html=1;align=center;verticalAlign=middle;resizable=0;points=[];labelBackgroundColor=none;" vertex="1" connectable="0" parent="Rxk09TWc0jQ7itNL19s6-59">
          <mxGeometry x="-0.0564" relative="1" as="geometry">
            <mxPoint x="8" as="offset" />
          </mxGeometry>
        </mxCell>
        <mxCell id="Rxk09TWc0jQ7itNL19s6-61" value="" style="endArrow=none;html=1;rounded=0;exitX=1;exitY=1;exitDx=0;exitDy=0;entryX=0;entryY=0;entryDx=0;entryDy=0;fillColor=#d5e8d4;strokeColor=#82b366;strokeWidth=2;" edge="1" parent="1" source="Rxk09TWc0jQ7itNL19s6-35" target="Rxk09TWc0jQ7itNL19s6-37">
          <mxGeometry width="50" height="50" relative="1" as="geometry">
            <mxPoint x="350" y="727" as="sourcePoint" />
            <mxPoint x="460" y="682" as="targetPoint" />
          </mxGeometry>
        </mxCell>
        <mxCell id="Rxk09TWc0jQ7itNL19s6-62" value="\(d_2\)" style="edgeLabel;html=1;align=center;verticalAlign=middle;resizable=0;points=[];labelBackgroundColor=none;" vertex="1" connectable="0" parent="Rxk09TWc0jQ7itNL19s6-61">
          <mxGeometry x="-0.0606" relative="1" as="geometry">
            <mxPoint y="11" as="offset" />
          </mxGeometry>
        </mxCell>
        <mxCell id="Rxk09TWc0jQ7itNL19s6-63" value="" style="endArrow=none;html=1;rounded=0;entryX=1;entryY=1;entryDx=0;entryDy=0;exitX=0;exitY=1;exitDx=0;exitDy=0;fillColor=#d5e8d4;strokeColor=#82b366;strokeWidth=2;" edge="1" parent="1" source="Rxk09TWc0jQ7itNL19s6-27" target="Rxk09TWc0jQ7itNL19s6-35">
          <mxGeometry width="50" height="50" relative="1" as="geometry">
            <mxPoint x="380" y="645" as="sourcePoint" />
            <mxPoint x="380" y="672" as="targetPoint" />
          </mxGeometry>
        </mxCell>
        <mxCell id="Rxk09TWc0jQ7itNL19s6-64" value="\(d_3\)" style="edgeLabel;html=1;align=center;verticalAlign=middle;resizable=0;points=[];labelBackgroundColor=none;" vertex="1" connectable="0" parent="Rxk09TWc0jQ7itNL19s6-63">
          <mxGeometry x="-0.1943" y="1" relative="1" as="geometry">
            <mxPoint x="-9" y="-11" as="offset" />
          </mxGeometry>
        </mxCell>
        <mxCell id="Rxk09TWc0jQ7itNL19s6-36" value="\(G(A)\)" style="rounded=0;whiteSpace=wrap;html=1;" vertex="1" parent="1">
          <mxGeometry x="435" y="557" width="40" height="20" as="geometry" />
        </mxCell>
        <mxCell id="Rxk09TWc0jQ7itNL19s6-24" value="\(F(G(A))\)" style="rounded=0;whiteSpace=wrap;html=1;" vertex="1" parent="1">
          <mxGeometry x="265" y="602" width="60" height="20" as="geometry" />
        </mxCell>
        <mxCell id="Rxk09TWc0jQ7itNL19s6-34" value="\(A\)" style="rounded=0;whiteSpace=wrap;html=1;" vertex="1" parent="1">
          <mxGeometry x="285" y="557" width="20" height="20" as="geometry" />
        </mxCell>
        <mxCell id="Rxk09TWc0jQ7itNL19s6-27" value="\(B\)" style="rounded=0;whiteSpace=wrap;html=1;" vertex="1" parent="1">
          <mxGeometry x="445" y="652" width="20" height="20" as="geometry" />
        </mxCell>
        <mxCell id="Rxk09TWc0jQ7itNL19s6-35" value="\(F(G(B))\)" style="rounded=0;whiteSpace=wrap;html=1;" vertex="1" parent="1">
          <mxGeometry x="265" y="662" width="60" height="20" as="geometry" />
        </mxCell>
        <mxCell id="Rxk09TWc0jQ7itNL19s6-37" value="\(G(B)\)" style="rounded=0;whiteSpace=wrap;html=1;" vertex="1" parent="1">
          <mxGeometry x="435" y="697" width="40" height="20" as="geometry" />
        </mxCell>
        <mxCell id="Rxk09TWc0jQ7itNL19s6-76" value="" style="endArrow=none;html=1;rounded=0;exitX=1;exitY=1;exitDx=0;exitDy=0;entryX=0;entryY=1;entryDx=0;entryDy=0;labelPosition=center;verticalLabelPosition=top;align=center;verticalAlign=bottom;strokeWidth=2;fillColor=#f8cecc;strokeColor=#b85450;" edge="1" parent="1">
          <mxGeometry width="50" height="50" relative="1" as="geometry">
            <mxPoint x="680" y="577" as="sourcePoint" />
            <mxPoint x="810" y="577" as="targetPoint" />
          </mxGeometry>
        </mxCell>
        <mxCell id="Rxk09TWc0jQ7itNL19s6-77" value="\(d_1\)" style="edgeLabel;html=1;align=center;verticalAlign=middle;resizable=0;points=[];labelBackgroundColor=none;" vertex="1" connectable="0" parent="Rxk09TWc0jQ7itNL19s6-76">
          <mxGeometry x="-0.0564" relative="1" as="geometry">
            <mxPoint x="4" y="-10" as="offset" />
          </mxGeometry>
        </mxCell>
        <mxCell id="Rxk09TWc0jQ7itNL19s6-78" value="" style="endArrow=none;html=1;rounded=0;exitX=1;exitY=0;exitDx=0;exitDy=0;entryX=0;entryY=1;entryDx=0;entryDy=0;strokeWidth=2;fillColor=#f8cecc;strokeColor=#b85450;" edge="1" parent="1">
          <mxGeometry width="50" height="50" relative="1" as="geometry">
            <mxPoint x="700" y="602" as="sourcePoint" />
            <mxPoint x="810" y="577" as="targetPoint" />
          </mxGeometry>
        </mxCell>
        <mxCell id="Rxk09TWc0jQ7itNL19s6-79" value="\(d_2\)" style="edgeLabel;html=1;align=center;verticalAlign=middle;resizable=0;points=[];labelBackgroundColor=none;" vertex="1" connectable="0" parent="Rxk09TWc0jQ7itNL19s6-78">
          <mxGeometry x="-0.0606" relative="1" as="geometry">
            <mxPoint y="11" as="offset" />
          </mxGeometry>
        </mxCell>
        <mxCell id="Rxk09TWc0jQ7itNL19s6-80" value="" style="endArrow=none;html=1;rounded=0;exitX=1;exitY=1;exitDx=0;exitDy=0;entryX=1;entryY=0;entryDx=0;entryDy=0;strokeWidth=2;fillColor=#f8cecc;strokeColor=#b85450;" edge="1" parent="1">
          <mxGeometry width="50" height="50" relative="1" as="geometry">
            <mxPoint x="680" y="577" as="sourcePoint" />
            <mxPoint x="700" y="602" as="targetPoint" />
          </mxGeometry>
        </mxCell>
        <mxCell id="Rxk09TWc0jQ7itNL19s6-81" value="\(d_3\)" style="edgeLabel;html=1;align=center;verticalAlign=middle;resizable=0;points=[];labelBackgroundColor=none;" vertex="1" connectable="0" parent="Rxk09TWc0jQ7itNL19s6-80">
          <mxGeometry x="-0.1943" y="1" relative="1" as="geometry">
            <mxPoint x="-9" y="5" as="offset" />
          </mxGeometry>
        </mxCell>
        <mxCell id="Rxk09TWc0jQ7itNL19s6-82" value="" style="endArrow=none;html=1;rounded=0;exitX=0;exitY=1;exitDx=0;exitDy=0;labelPosition=center;verticalLabelPosition=top;align=center;verticalAlign=bottom;entryX=0;entryY=0;entryDx=0;entryDy=0;fillColor=#d5e8d4;strokeColor=#82b366;strokeWidth=2;" edge="1" parent="1">
          <mxGeometry width="50" height="50" relative="1" as="geometry">
            <mxPoint x="820" y="672" as="sourcePoint" />
            <mxPoint x="810" y="697" as="targetPoint" />
          </mxGeometry>
        </mxCell>
        <mxCell id="Rxk09TWc0jQ7itNL19s6-83" value="\(d_1\)" style="edgeLabel;html=1;align=center;verticalAlign=middle;resizable=0;points=[];labelBackgroundColor=none;" vertex="1" connectable="0" parent="Rxk09TWc0jQ7itNL19s6-82">
          <mxGeometry x="-0.0564" relative="1" as="geometry">
            <mxPoint x="8" as="offset" />
          </mxGeometry>
        </mxCell>
        <mxCell id="Rxk09TWc0jQ7itNL19s6-84" value="" style="endArrow=none;html=1;rounded=0;exitX=1;exitY=1;exitDx=0;exitDy=0;entryX=0;entryY=0;entryDx=0;entryDy=0;fillColor=#d5e8d4;strokeColor=#82b366;strokeWidth=2;" edge="1" parent="1">
          <mxGeometry width="50" height="50" relative="1" as="geometry">
            <mxPoint x="700" y="682" as="sourcePoint" />
            <mxPoint x="810" y="697" as="targetPoint" />
          </mxGeometry>
        </mxCell>
        <mxCell id="Rxk09TWc0jQ7itNL19s6-85" value="\(d_2\)" style="edgeLabel;html=1;align=center;verticalAlign=middle;resizable=0;points=[];labelBackgroundColor=none;" vertex="1" connectable="0" parent="Rxk09TWc0jQ7itNL19s6-84">
          <mxGeometry x="-0.0606" relative="1" as="geometry">
            <mxPoint y="11" as="offset" />
          </mxGeometry>
        </mxCell>
        <mxCell id="Rxk09TWc0jQ7itNL19s6-86" value="" style="endArrow=none;html=1;rounded=0;entryX=1;entryY=1;entryDx=0;entryDy=0;exitX=0;exitY=1;exitDx=0;exitDy=0;fillColor=#d5e8d4;strokeColor=#82b366;strokeWidth=2;" edge="1" parent="1">
          <mxGeometry width="50" height="50" relative="1" as="geometry">
            <mxPoint x="820" y="672" as="sourcePoint" />
            <mxPoint x="700" y="682" as="targetPoint" />
          </mxGeometry>
        </mxCell>
        <mxCell id="Rxk09TWc0jQ7itNL19s6-87" value="\(d_3\)" style="edgeLabel;html=1;align=center;verticalAlign=middle;resizable=0;points=[];labelBackgroundColor=none;" vertex="1" connectable="0" parent="Rxk09TWc0jQ7itNL19s6-86">
          <mxGeometry x="-0.1943" y="1" relative="1" as="geometry">
            <mxPoint x="-9" y="-11" as="offset" />
          </mxGeometry>
        </mxCell>
        <mxCell id="Rxk09TWc0jQ7itNL19s6-88" value="" style="shape=flexArrow;endArrow=classic;html=1;rounded=0;fillColor=#f5f5f5;strokeColor=#666666;" edge="1" parent="1">
          <mxGeometry width="50" height="50" relative="1" as="geometry">
            <mxPoint x="580" y="640" as="sourcePoint" />
            <mxPoint x="660" y="640" as="targetPoint" />
          </mxGeometry>
        </mxCell>
      </root>
    </mxGraphModel>
  </diagram>
</mxfile>
